<?xml version="1.0" standalone="yes"?>
<svg xmlns="http://www.w3.org/2000/svg" width="129" height="85">
<path style="fill:#e7eaf0; stroke:none;" d="M0 0L0 85L129 85L129 0L0 0z"/>
<path style="fill:#605e5c; stroke:none;" d="M27 8C17.8126 21.9427 15.7619 39.7813 19.2106 56C20.7476 63.228 23.8954 76.9922 33 70C22.8174 50.5657 24.841 31.5973 33 12L27 8z"/>
<path style="fill:#c0bfbe; stroke:none;" d="M28 8L29 9L28 8z"/>
<path style="fill:#adacab; stroke:none;" d="M104.667 8.33334C104.222 8.77777 105.278 8.72221 105.333 8.66666C105.778 8.22223 104.722 8.27776 104.667 8.33334M29 9L30 10L29 9z"/>
<path style="fill:#605e5c; stroke:none;" d="M106 74C114.094 58.6141 116.649 43.149 113.192 26C112.27 21.4234 110.767 15.9096 107.867 12.1528C106.514 10.4004 104.399 8.98384 102.346 10.662C98.4946 13.8108 104.146 22.1956 104.985 26C107.117 35.6724 107.406 45.2865 105.331 55C104.387 59.4204 100.879 64.5102 100.813 68.9059C100.767 71.9802 103.636 73.0526 106 74z"/>
<path style="fill:#a19f9e; stroke:none;" d="M25 10L26 11L25 10z"/>
<path style="fill:#908e8d; stroke:none;" d="M30 10L31 11L30 10z"/>
<path style="fill:#b7b6b5; stroke:none;" d="M101 10L102 11L101 10z"/>
<path style="fill:#a19f9e; stroke:none;" d="M100 11L101 12L100 11M107 11L108 12L107 11z"/>
<path style="fill:#908e8d; stroke:none;" d="M99 12L100 13L99 12z"/>
<path style="fill:#c0bfbe; stroke:none;" d="M23 13L24 14L23 13z"/>
<path style="fill:#908e8d; stroke:none;" d="M32 13L33 14L32 13z"/>
<path style="fill:#b7b6b5; stroke:none;" d="M45.6667 14.3333C45.2222 14.7778 46.2778 14.7222 46.3333 14.6667C46.7778 14.2222 45.7222 14.2778 45.6667 14.3333z"/>
<path style="fill:#a19f9e; stroke:none;" d="M86 14L87 15L86 14M100 14L101 15L100 14z"/>
<path style="fill:#b7b6b5; stroke:none;" d="M22 15L23 16L22 15M31 15L32 16L31 15z"/>
<path style="fill:#605e5c; stroke:none;" d="M45 15C34.1506 33.5918 35.1803 54.3331 45 73C52.8356 69.0334 46.4042 61.5044 45.2863 55C43.0011 41.7046 44.7399 29.9478 51 18C48.9902 16.7386 47.2222 15.8102 45 15z"/>
<path style="fill:#adacab; stroke:none;" d="M47 15L48 16L47 15M84 15L85 16L84 15z"/>
<path style="fill:#605e5c; stroke:none;" d="M82 17C82.8721 21.8924 85.5089 26.1297 86.5471 31C89.2416 43.6411 86.8475 53.9117 83.382 65.9961C82.3144 69.7187 83.9531 71.2738 87 73C96.5679 54.8117 98.7112 32.9229 87 15L82 17z"/>
<path style="fill:#c0bfbe; stroke:none;" d="M87 15L88 16L87 15z"/>
<path style="fill:#908e8d; stroke:none;" d="M48 16L49 17L48 16M83 16L84 17L83 16z"/>
<path style="fill:#b7b6b5; stroke:none;" d="M101 16L102 17L101 16z"/>
<path style="fill:#a19f9e; stroke:none;" d="M43 17L44 18L43 17z"/>
<path style="fill:#908e8d; stroke:none;" d="M88 17L89 18L88 17M110 17L111 18L110 17M21 18L22 19L21 18z"/>
<path style="fill:#d6d5d5; stroke:none;" d="M55 18C61.9279 20.9071 72.503 19 80 19C73.0721 16.0929 62.497 18 55 18z"/>
<path style="fill:#908e8d; stroke:none;" d="M81 18L82 19L81 18z"/>
<path style="fill:#b7b6b5; stroke:none;" d="M102 18L103 19L102 18M29 19L30 20L29 19z"/>
<path style="fill:#908e8d; stroke:none;" d="M42 19L43 20L42 19z"/>
<path style="fill:#605e5c; stroke:none;" d="M55 19L55 64L63 64L63 45L77 45L77 38L63 38L63 26L80 26L80 19L55 19z"/>
<path style="fill:#b7b6b5; stroke:none;" d="M111 19L112 20L111 19z"/>
<path style="fill:#c0bfbe; stroke:none;" d="M20 20L21 21L20 20z"/>
<path style="fill:#a19f9e; stroke:none;" d="M49 20L50 21L49 20z"/>
<path style="fill:#b7b6b5; stroke:none;" d="M82 20L83 21L82 20z"/>
<path style="fill:#908e8d; stroke:none;" d="M103 20L104 21L103 20M28 21L29 22L28 21M41 21L42 22L41 21z"/>
<path style="fill:#b7b6b5; stroke:none;" d="M48 22L49 23L48 22z"/>
<path style="fill:#c0bfbe; stroke:none;" d="M112 22L113 23L112 22z"/>
<path style="fill:#a19f9e; stroke:none;" d="M40 23L41 24L40 23z"/>
<path style="fill:#908e8d; stroke:none;" d="M91 23L92 24L91 23M104 23L105 24L104 23z"/>
<path style="fill:#a19f9e; stroke:none;" d="M19 24L20 25L19 24M47 24L48 25L47 24z"/>
<path style="fill:#b7b6b5; stroke:none;" d="M84 24L85 25L84 24z"/>
<path style="fill:#cfcece; stroke:none;" d="M27.3333 25.6667C27.2778 25.7222 27.2222 26.7778 27.6667 26.3333C27.7222 26.2778 27.7778 25.2222 27.3333 25.6667z"/>
<path style="fill:#c0bfbe; stroke:none;" d="M92 25L93 26L92 25z"/>
<path style="fill:#a19f9e; stroke:none;" d="M39 26L40 27L39 26z"/>
<path style="fill:#d6d5d5; stroke:none;" d="M63 26C67.974 28.0872 74.6381 27 80 27C75.026 24.9128 68.362 26 63 26z"/>
<path style="fill:#908e8d; stroke:none;" d="M85 26L86 27L85 26z"/>
<path style="fill:#c0bfbe; stroke:none;" d="M113 26L114 27L113 26z"/>
<path style="fill:#908e8d; stroke:none;" d="M113 27L114 28L113 27z"/>
<path style="fill:#a19f9e; stroke:none;" d="M18.3333 28.6667C18.2778 28.7222 18.2222 29.7778 18.6667 29.3333C18.7222 29.2778 18.7778 28.2222 18.3333 28.6667z"/>
<path style="fill:#cfcece; stroke:none;" d="M105 28L105 31C105.696 29.4463 105.696 29.5537 105 28z"/>
<path style="fill:#c0bfbe; stroke:none;" d="M38 29L39 30L38 29z"/>
<path style="fill:#adacab; stroke:none;" d="M93 29L94 30L93 29z"/>
<path style="fill:#b7b6b5; stroke:none;" d="M26.3333 30.6667C26.2778 30.7222 26.2222 31.7778 26.6667 31.3333C26.7222 31.2778 26.7778 30.2222 26.3333 30.6667z"/>
<path style="fill:#908e8d; stroke:none;" d="M38 30L39 31L38 30z"/>
<path style="fill:#c0bfbe; stroke:none;" d="M86.3333 30.6667C86.2777 30.7223 86.2222 31.7778 86.6667 31.3333C86.7222 31.2778 86.7778 30.2222 86.3333 30.6667z"/>
<path style="fill:#cfcece; stroke:none;" d="M45 31L45 34C45.6961 32.4463 45.6961 32.5537 45 31M94.3333 32.6667C94.2778 32.7222 94.2222 33.7778 94.6667 33.3333C94.7222 33.2778 94.7778 32.2222 94.3333 32.6667z"/>
<path style="fill:#b7b6b5; stroke:none;" d="M114 32L114 35C114.696 33.4463 114.696 33.5537 114 32z"/>
<path style="fill:#cfcece; stroke:none;" d="M37.3333 33.6667C37.2778 33.7222 37.2222 34.7778 37.6667 34.3333C37.7222 34.2778 37.7778 33.2222 37.3333 33.6667z"/>
<path style="fill:#a19f9e; stroke:none;" d="M94.3333 34.6667C94.2778 34.7222 94.2222 35.7778 94.6667 35.3333C94.7222 35.2778 94.7778 34.2222 94.3333 34.6667z"/>
<path style="fill:#adacab; stroke:none;" d="M37.3333 35.6667C37.2778 35.7222 37.2222 36.7778 37.6667 36.3333C37.7222 36.2778 37.7778 35.2222 37.3333 35.6667z"/>
<path style="fill:#b7b6b5; stroke:none;" d="M106 35L106 47C107.512 43.3957 107.512 38.6043 106 35M87 36L87 39C87.6961 37.4463 87.6961 37.5537 87 36M17 37L17 46C18.2561 43.0059 18.2561 39.9941 17 37M44 37L44 50C45.5909 46.2087 45.5909 40.7913 44 37z"/>
<path style="fill:#d6d5d5; stroke:none;" d="M77 38L77 45C78.0595 42.4657 78.0595 40.5343 77 38M87 39L87 48C88.2561 45.0059 88.2561 41.9941 87 39z"/>
<path style="fill:#b7b6b5; stroke:none;" d="M63 45C67.2165 46.7693 72.4589 46 77 46C72.7835 44.2307 67.5411 45 63 45M114 47L114 50C114.696 48.4463 114.696 48.5537 114 47z"/>
<path style="fill:#d6d5d5; stroke:none;" d="M26 48L26 52C26.7102 50.2405 26.7102 49.7595 26 48z"/>
<path style="fill:#b7b6b5; stroke:none;" d="M87 48L87 51C87.6961 49.4463 87.6961 49.5537 87 48M37 50L37 53C37.6961 51.4463 37.6961 51.5537 37 50M18.3333 52.6667C18.2778 52.7222 18.2222 53.7778 18.6667 53.3333C18.7222 53.2778 18.7778 52.2222 18.3333 52.6667z"/>
<path style="fill:#908e8d; stroke:none;" d="M26 52L27 53L26 52z"/>
<path style="fill:#c0bfbe; stroke:none;" d="M94.3333 52.6667C94.2778 52.7222 94.2222 53.7778 94.6667 53.3333C94.7222 53.2778 94.7778 52.2222 94.3333 52.6667z"/>
<path style="fill:#a19f9e; stroke:none;" d="M105.333 53.6667C105.278 53.7222 105.222 54.7778 105.667 54.3333C105.722 54.2778 105.778 53.2222 105.333 53.6667M45.3333 55.6667C45.2778 55.7222 45.2222 56.7778 45.6667 56.3333C45.7222 56.2778 45.7778 55.2222 45.3333 55.6667z"/>
<path style="fill:#b7b6b5; stroke:none;" d="M86.3333 55.6667C86.2778 55.7222 86.2222 56.7778 86.6667 56.3333C86.7222 56.2778 86.7778 55.2222 86.3333 55.6667z"/>
<path style="fill:#cfcece; stroke:none;" d="M113.333 55.6667C113.278 55.7222 113.222 56.7778 113.667 56.3333C113.722 56.2778 113.778 55.2222 113.333 55.6667z"/>
<path style="fill:#c0bfbe; stroke:none;" d="M27 56L28 57L27 56z"/>
<path style="fill:#908e8d; stroke:none;" d="M19 57L20 58L19 57M27 57L28 58L27 57z"/>
<path style="fill:#cfcece; stroke:none;" d="M38.3333 57.6667C38.2778 57.7222 38.2222 58.7778 38.6667 58.3333C38.7222 58.2778 38.7778 57.2222 38.3333 57.6667z"/>
<path style="fill:#908e8d; stroke:none;" d="M93 57L94 58L93 57z"/>
<path style="fill:#adacab; stroke:none;" d="M104 58L105 59L104 58z"/>
<path style="fill:#cfcece; stroke:none;" d="M112.333 59.6667C112.278 59.7222 112.222 60.7778 112.667 60.3333C112.722 60.2778 112.778 59.2222 112.333 59.6667z"/>
<path style="fill:#a19f9e; stroke:none;" d="M28 60L29 61L28 60z"/>
<path style="fill:#908e8d; stroke:none;" d="M46 60L47 61L46 60z"/>
<path style="fill:#adacab; stroke:none;" d="M85 60L86 61L85 60z"/>
<path style="fill:#a19f9e; stroke:none;" d="M92 61L93 62L92 61z"/>
<path style="fill:#adacab; stroke:none;" d="M103 61L104 62L103 61z"/>
<path style="fill:#a19f9e; stroke:none;" d="M111 62L112 63L111 62z"/>
<path style="fill:#908e8d; stroke:none;" d="M29 63L30 64L29 63M84 63L85 64L84 63z"/>
<path style="fill:#b7b6b5; stroke:none;" d="M21 64L22 65L21 64M91 64L92 65L91 64z"/>
<path style="fill:#908e8d; stroke:none;" d="M102 64L103 65L102 64z"/>
<path style="fill:#a19f9e; stroke:none;" d="M30 65L31 66L30 65z"/>
<path style="fill:#908e8d; stroke:none;" d="M48 65L49 66L48 65z"/>
<path style="fill:#a19f9e; stroke:none;" d="M83 65L84 66L83 65z"/>
<path style="fill:#b7b6b5; stroke:none;" d="M110 65L111 66L110 65z"/>
<path style="fill:#a19f9e; stroke:none;" d="M22 66L23 67L22 66z"/>
<path style="fill:#b7b6b5; stroke:none;" d="M41 66L42 67L41 66z"/>
<path style="fill:#a19f9e; stroke:none;" d="M90 66L91 67L90 66z"/>
<path style="fill:#908e8d; stroke:none;" d="M101 66L102 67L101 66M31 67L32 68L31 67M82 67L83 68L82 67z"/>
<path style="fill:#a19f9e; stroke:none;" d="M109 67L110 68L109 67M23 68L24 69L23 68z"/>
<path style="fill:#c0bfbe; stroke:none;" d="M32 68L33 69L32 68z"/>
<path style="fill:#b7b6b5; stroke:none;" d="M42 68L43 69L42 68z"/>
<path style="fill:#908e8d; stroke:none;" d="M50.3333 68.6667C50.2778 68.7222 50.2222 69.7778 50.6667 69.3333C50.7222 69.2778 50.7778 68.2222 50.3333 68.6667z"/>
<path style="fill:#a19f9e; stroke:none;" d="M81.3333 68.6667C81.2778 68.7222 81.2222 69.7778 81.6667 69.3333C81.7222 69.2778 81.7778 68.2222 81.3333 68.6667M89 68L90 69L89 68z"/>
<path style="fill:#c8c7c6; stroke:none;" d="M99.3333 69.6667C99.2778 69.7222 99.2222 70.7778 99.6667 70.3333C99.7222 70.2778 99.7778 69.2222 99.3333 69.6667z"/>
<path style="fill:#b7b6b5; stroke:none;" d="M108 69L109 70L108 69M24 70L25 71L24 70z"/>
<path style="fill:#a19f9e; stroke:none;" d="M32 70L33 71L32 70z"/>
<path style="fill:#adacab; stroke:none;" d="M49 70L50 71L49 70z"/>
<path style="fill:#b7b6b5; stroke:none;" d="M82 70L83 71L82 70M88 70L89 71L88 70M31 71L32 72L31 71z"/>
<path style="fill:#a19f9e; stroke:none;" d="M44 71L45 72L44 71z"/>
<path style="fill:#908e8d; stroke:none;" d="M87 71L88 72L87 71M85 72L86 73L85 72M102 72L103 73L102 72z"/>
<path style="fill:#a19f9e; stroke:none;" d="M106 72L107 73L106 72z"/>
<path style="fill:#b7b6b5; stroke:none;" d="M26 73L27 74L26 73z"/>
<path style="fill:#908e8d; stroke:none;" d="M28 73L29 74L28 73z"/>
<path style="fill:#adacab; stroke:none;" d="M103 73L104 74L103 73M27 74L28 75L27 74z"/>
</svg>
